<?xml version="1.0" encoding="UTF-8" standalone="no"?>
<!DOCTYPE svg PUBLIC "-//W3C//DTD SVG 1.1//EN"
 "http://www.w3.org/Graphics/SVG/1.1/DTD/svg11.dtd">
<!-- Generated by graphviz version 2.47.0 (20210316.0004)
 -->
<!-- Title: dependencies Pages: 1 -->
<svg width="2290pt" height="284pt"
 viewBox="0.00 0.00 2290.00 284.00" xmlns="http://www.w3.org/2000/svg" xmlns:xlink="http://www.w3.org/1999/xlink">
<g id="graph0" class="graph" transform="scale(1 1) rotate(0) translate(4 280)">
<title>dependencies</title>
<polygon fill="white" stroke="transparent" points="-4,4 -4,-280 2286,-280 2286,4 -4,4"/>
<text text-anchor="start" x="1120.01" y="-42.4" font-family="Times-12" font-weight="bold" font-size="14.00">Legend</text>
<polygon fill="#ffffb3" stroke="transparent" points="907,-10 907,-30 927,-30 927,-10 907,-10"/>
<text text-anchor="start" x="930.63" y="-15.4" font-family="Times-12" font-size="14.00"> &#160;Declarations</text>
<polygon fill="#8dd3c7" stroke="transparent" points="1020,-10 1020,-30 1040,-30 1040,-10 1020,-10"/>
<text text-anchor="start" x="1043.73" y="-15.4" font-family="Times-12" font-size="14.00"> &#160;Module</text>
<polygon fill="#80b1d3" stroke="transparent" points="1106,-10 1106,-30 1126,-30 1126,-10 1106,-10"/>
<text text-anchor="start" x="1129.78" y="-15.4" font-family="Times-12" font-size="14.00"> &#160;Bootstrap</text>
<polygon fill="#fdb462" stroke="transparent" points="1203,-10 1203,-30 1223,-30 1223,-10 1203,-10"/>
<text text-anchor="start" x="1226.67" y="-15.4" font-family="Times-12" font-size="14.00"> &#160;Providers</text>
<polygon fill="#fb8072" stroke="transparent" points="1299,-10 1299,-30 1319,-30 1319,-10 1299,-10"/>
<text text-anchor="start" x="1322.73" y="-15.4" font-family="Times-12" font-size="14.00"> &#160;Exports</text>
<g id="clust1" class="cluster">
<title>cluster_AppModule</title>
<polygon fill="none" stroke="black" stroke-dasharray="1,5" points="8,-70 8,-268 2274,-268 2274,-70 8,-70"/>
</g>
<g id="clust15" class="cluster">
<title>cluster_AppModule_imports</title>
<polygon fill="none" stroke="black" points="2122,-78 2122,-130 2266,-130 2266,-78 2122,-78"/>
</g>
<g id="clust17" class="cluster">
<title>cluster_AppModule_bootstrap</title>
<polygon fill="none" stroke="black" points="1138,-208 1138,-260 1262,-260 1262,-208 1138,-208"/>
</g>
<g id="clust2" class="cluster">
<title>cluster_AppModule_declarations</title>
<polygon fill="none" stroke="black" points="16,-78 16,-130 2114,-130 2114,-78 16,-78"/>
</g>
<!-- AiModelDetailComponent -->
<g id="node1" class="node">
<title>AiModelDetailComponent</title>
<polygon fill="#ffffb3" stroke="black" points="2106.09,-122 1939.91,-122 1939.91,-86 2106.09,-86 2106.09,-122"/>
<text text-anchor="middle" x="2023" y="-99.8" font-family="Times,serif" font-size="14.00">AiModelDetailComponent</text>
</g>
<!-- AppModule -->
<g id="node13" class="node">
<title>AppModule</title>
<polygon fill="#8dd3c7" stroke="black" points="1241.66,-187 1238.66,-191 1217.66,-191 1214.66,-187 1158.34,-187 1158.34,-151 1241.66,-151 1241.66,-187"/>
<text text-anchor="middle" x="1200" y="-164.8" font-family="Times,serif" font-size="14.00">AppModule</text>
</g>
<!-- AiModelDetailComponent&#45;&gt;AppModule -->
<g id="edge1" class="edge">
<title>AiModelDetailComponent&#45;&gt;AppModule</title>
<path fill="none" stroke="black" d="M2023,-122.04C2023,-143.66 2023,-177 2023,-177 2023,-177 1251.66,-177 1251.66,-177"/>
<polygon fill="black" stroke="black" points="1251.66,-173.5 1241.66,-177 1251.66,-180.5 1251.66,-173.5"/>
</g>
<!-- AppComponent -->
<g id="node2" class="node">
<title>AppComponent</title>
<polygon fill="#ffffb3" stroke="black" points="1921.94,-122 1816.06,-122 1816.06,-86 1921.94,-86 1921.94,-122"/>
<text text-anchor="middle" x="1869" y="-99.8" font-family="Times,serif" font-size="14.00">AppComponent</text>
</g>
<!-- AppComponent&#45;&gt;AppModule -->
<g id="edge2" class="edge">
<title>AppComponent&#45;&gt;AppModule</title>
<path fill="none" stroke="black" d="M1869,-122.22C1869,-142.37 1869,-172 1869,-172 1869,-172 1251.85,-172 1251.85,-172"/>
<polygon fill="black" stroke="black" points="1251.85,-168.5 1241.85,-172 1251.85,-175.5 1251.85,-168.5"/>
</g>
<!-- ChatbotContainerComponent -->
<g id="node3" class="node">
<title>ChatbotContainerComponent</title>
<polygon fill="#ffffb3" stroke="black" points="1798.37,-122 1617.63,-122 1617.63,-86 1798.37,-86 1798.37,-122"/>
<text text-anchor="middle" x="1708" y="-99.8" font-family="Times,serif" font-size="14.00">ChatbotContainerComponent</text>
</g>
<!-- ChatbotContainerComponent&#45;&gt;AppModule -->
<g id="edge3" class="edge">
<title>ChatbotContainerComponent&#45;&gt;AppModule</title>
<path fill="none" stroke="black" d="M1708,-122.22C1708,-140.83 1708,-167 1708,-167 1708,-167 1252,-167 1252,-167"/>
<polygon fill="black" stroke="black" points="1252,-163.5 1242,-167 1252,-170.5 1252,-163.5"/>
</g>
<!-- ErrorMessageComponent -->
<g id="node4" class="node">
<title>ErrorMessageComponent</title>
<polygon fill="#ffffb3" stroke="black" points="1599.84,-122 1440.16,-122 1440.16,-86 1599.84,-86 1599.84,-122"/>
<text text-anchor="middle" x="1520" y="-99.8" font-family="Times,serif" font-size="14.00">ErrorMessageComponent</text>
</g>
<!-- ErrorMessageComponent&#45;&gt;AppModule -->
<g id="edge4" class="edge">
<title>ErrorMessageComponent&#45;&gt;AppModule</title>
<path fill="none" stroke="black" d="M1520,-122.03C1520,-139.06 1520,-162 1520,-162 1520,-162 1251.83,-162 1251.83,-162"/>
<polygon fill="black" stroke="black" points="1251.83,-158.5 1241.83,-162 1251.83,-165.5 1251.83,-158.5"/>
</g>
<!-- HomeComponent -->
<g id="node5" class="node">
<title>HomeComponent</title>
<polygon fill="#ffffb3" stroke="black" points="1421.55,-122 1306.45,-122 1306.45,-86 1421.55,-86 1421.55,-122"/>
<text text-anchor="middle" x="1364" y="-99.8" font-family="Times,serif" font-size="14.00">HomeComponent</text>
</g>
<!-- HomeComponent&#45;&gt;AppModule -->
<g id="edge5" class="edge">
<title>HomeComponent&#45;&gt;AppModule</title>
<path fill="none" stroke="black" d="M1364,-122.24C1364,-137.57 1364,-157 1364,-157 1364,-157 1251.81,-157 1251.81,-157"/>
<polygon fill="black" stroke="black" points="1251.81,-153.5 1241.81,-157 1251.81,-160.5 1251.81,-153.5"/>
</g>
<!-- LoadingMessageComponent -->
<g id="node6" class="node">
<title>LoadingMessageComponent</title>
<polygon fill="#ffffb3" stroke="black" points="1288.47,-122 1111.53,-122 1111.53,-86 1288.47,-86 1288.47,-122"/>
<text text-anchor="middle" x="1200" y="-99.8" font-family="Times,serif" font-size="14.00">LoadingMessageComponent</text>
</g>
<!-- LoadingMessageComponent&#45;&gt;AppModule -->
<g id="edge6" class="edge">
<title>LoadingMessageComponent&#45;&gt;AppModule</title>
<path fill="none" stroke="black" d="M1200,-122.11C1200,-122.11 1200,-140.99 1200,-140.99"/>
<polygon fill="black" stroke="black" points="1196.5,-140.99 1200,-150.99 1203.5,-140.99 1196.5,-140.99"/>
</g>
<!-- MessageBoxComponent -->
<g id="node7" class="node">
<title>MessageBoxComponent</title>
<polygon fill="#ffffb3" stroke="black" points="1093.65,-122 940.35,-122 940.35,-86 1093.65,-86 1093.65,-122"/>
<text text-anchor="middle" x="1017" y="-99.8" font-family="Times,serif" font-size="14.00">MessageBoxComponent</text>
</g>
<!-- MessageBoxComponent&#45;&gt;AppModule -->
<g id="edge7" class="edge">
<title>MessageBoxComponent&#45;&gt;AppModule</title>
<path fill="none" stroke="black" d="M1017,-122.24C1017,-137.57 1017,-157 1017,-157 1017,-157 1148.02,-157 1148.02,-157"/>
<polygon fill="black" stroke="black" points="1148.02,-160.5 1158.02,-157 1148.02,-153.5 1148.02,-160.5"/>
</g>
<!-- MessageListComponent -->
<g id="node8" class="node">
<title>MessageListComponent</title>
<polygon fill="#ffffb3" stroke="black" points="922.09,-122 769.91,-122 769.91,-86 922.09,-86 922.09,-122"/>
<text text-anchor="middle" x="846" y="-99.8" font-family="Times,serif" font-size="14.00">MessageListComponent</text>
</g>
<!-- MessageListComponent&#45;&gt;AppModule -->
<g id="edge8" class="edge">
<title>MessageListComponent&#45;&gt;AppModule</title>
<path fill="none" stroke="black" d="M846,-122.03C846,-139.06 846,-162 846,-162 846,-162 1148,-162 1148,-162"/>
<polygon fill="black" stroke="black" points="1148,-165.5 1158,-162 1148,-158.5 1148,-165.5"/>
</g>
<!-- MessageSuggestionsComponent -->
<g id="node9" class="node">
<title>MessageSuggestionsComponent</title>
<polygon fill="#ffffb3" stroke="black" points="751.98,-122 554.02,-122 554.02,-86 751.98,-86 751.98,-122"/>
<text text-anchor="middle" x="653" y="-99.8" font-family="Times,serif" font-size="14.00">MessageSuggestionsComponent</text>
</g>
<!-- MessageSuggestionsComponent&#45;&gt;AppModule -->
<g id="edge9" class="edge">
<title>MessageSuggestionsComponent&#45;&gt;AppModule</title>
<path fill="none" stroke="black" d="M653,-122.22C653,-140.83 653,-167 653,-167 653,-167 1147.99,-167 1147.99,-167"/>
<polygon fill="black" stroke="black" points="1147.99,-170.5 1157.99,-167 1147.99,-163.5 1147.99,-170.5"/>
</g>
<!-- PictureGenContainerComponent -->
<g id="node10" class="node">
<title>PictureGenContainerComponent</title>
<polygon fill="#ffffb3" stroke="black" points="535.52,-122 336.48,-122 336.48,-86 535.52,-86 535.52,-122"/>
<text text-anchor="middle" x="436" y="-99.8" font-family="Times,serif" font-size="14.00">PictureGenContainerComponent</text>
</g>
<!-- PictureGenContainerComponent&#45;&gt;AppModule -->
<g id="edge10" class="edge">
<title>PictureGenContainerComponent&#45;&gt;AppModule</title>
<path fill="none" stroke="black" d="M436,-122.22C436,-142.37 436,-172 436,-172 436,-172 1148.11,-172 1148.11,-172"/>
<polygon fill="black" stroke="black" points="1148.11,-175.5 1158.11,-172 1148.11,-168.5 1148.11,-175.5"/>
</g>
<!-- SidenavComponent -->
<g id="node11" class="node">
<title>SidenavComponent</title>
<polygon fill="#ffffb3" stroke="black" points="318.44,-122 191.56,-122 191.56,-86 318.44,-86 318.44,-122"/>
<text text-anchor="middle" x="255" y="-99.8" font-family="Times,serif" font-size="14.00">SidenavComponent</text>
</g>
<!-- SidenavComponent&#45;&gt;AppModule -->
<g id="edge11" class="edge">
<title>SidenavComponent&#45;&gt;AppModule</title>
<path fill="none" stroke="black" d="M255,-122.04C255,-143.66 255,-177 255,-177 255,-177 1148.18,-177 1148.18,-177"/>
<polygon fill="black" stroke="black" points="1148.18,-180.5 1158.18,-177 1148.18,-173.5 1148.18,-180.5"/>
</g>
<!-- TitleTopBarComponent -->
<g id="node12" class="node">
<title>TitleTopBarComponent</title>
<polygon fill="#ffffb3" stroke="black" points="174.04,-122 23.96,-122 23.96,-86 174.04,-86 174.04,-122"/>
<text text-anchor="middle" x="99" y="-99.8" font-family="Times,serif" font-size="14.00">TitleTopBarComponent</text>
</g>
<!-- TitleTopBarComponent&#45;&gt;AppModule -->
<g id="edge12" class="edge">
<title>TitleTopBarComponent&#45;&gt;AppModule</title>
<path fill="none" stroke="black" d="M99,-122.09C99,-145.13 99,-182 99,-182 99,-182 1148.18,-182 1148.18,-182"/>
<polygon fill="black" stroke="black" points="1148.18,-185.5 1158.18,-182 1148.18,-178.5 1148.18,-185.5"/>
</g>
<!-- AppComponent  -->
<g id="node15" class="node">
<title>AppComponent </title>
<polygon fill="#80b1d3" stroke="black" points="1254.44,-252 1145.56,-252 1145.56,-216 1254.44,-216 1254.44,-252"/>
<text text-anchor="middle" x="1200" y="-229.8" font-family="Times,serif" font-size="14.00">AppComponent </text>
</g>
<!-- AppModule&#45;&gt;AppComponent  -->
<g id="edge14" class="edge">
<title>AppModule&#45;&gt;AppComponent </title>
<path fill="none" stroke="black" stroke-dasharray="1,5" d="M1200,-187.11C1200,-187.11 1200,-205.99 1200,-205.99"/>
<polygon fill="black" stroke="black" points="1196.5,-205.99 1200,-215.99 1203.5,-205.99 1196.5,-205.99"/>
</g>
<!-- AppRoutingModule -->
<g id="node14" class="node">
<title>AppRoutingModule</title>
<polygon fill="#8dd3c7" stroke="black" points="2258.27,-122 2255.27,-126 2234.27,-126 2231.27,-122 2129.73,-122 2129.73,-86 2258.27,-86 2258.27,-122"/>
<text text-anchor="middle" x="2194" y="-99.8" font-family="Times,serif" font-size="14.00">AppRoutingModule</text>
</g>
<!-- AppRoutingModule&#45;&gt;AppModule -->
<g id="edge13" class="edge">
<title>AppRoutingModule&#45;&gt;AppModule</title>
<path fill="none" stroke="black" d="M2194,-122.09C2194,-145.13 2194,-182 2194,-182 2194,-182 1251.76,-182 1251.76,-182"/>
<polygon fill="black" stroke="black" points="1251.76,-178.5 1241.76,-182 1251.76,-185.5 1251.76,-178.5"/>
</g>
</g>
</svg>
