<?xml version="1.0" encoding="UTF-8" standalone="no"?>
<!DOCTYPE svg PUBLIC "-//W3C//DTD SVG 1.1//EN"
 "http://www.w3.org/Graphics/SVG/1.1/DTD/svg11.dtd">
<!-- Generated by graphviz version 2.47.0 (20210316.0004)
 -->
<!-- Title: dependencies Pages: 1 -->
<svg width="2290pt" height="284pt"
 viewBox="0.00 0.00 2290.00 284.00" xmlns="http://www.w3.org/2000/svg" xmlns:xlink="http://www.w3.org/1999/xlink">
<g id="graph0" class="graph" transform="scale(1 1) rotate(0) translate(4 280)">
<title>dependencies</title>
<polygon fill="white" stroke="transparent" points="-4,4 -4,-280 2286,-280 2286,4 -4,4"/>
<text text-anchor="start" x="1120.01" y="-42.4" font-family="Times-12" font-weight="bold" font-size="14.00">Legend</text>
<polygon fill="#ffffb3" stroke="transparent" points="907,-10 907,-30 927,-30 927,-10 907,-10"/>
<text text-anchor="start" x="930.63" y="-15.4" font-family="Times-12" font-size="14.00"> &#160;Declarations</text>
<polygon fill="#8dd3c7" stroke="transparent" points="1020,-10 1020,-30 1040,-30 1040,-10 1020,-10"/>
<text text-anchor="start" x="1043.73" y="-15.4" font-family="Times-12" font-size="14.00"> &#160;Module</text>
<polygon fill="#80b1d3" stroke="transparent" points="1106,-10 1106,-30 1126,-30 1126,-10 1106,-10"/>
<text text-anchor="start" x="1129.78" y="-15.4" font-family="Times-12" font-size="14.00"> &#160;Bootstrap</text>
<polygon fill="#fdb462" stroke="transparent" points="1203,-10 1203,-30 1223,-30 1223,-10 1203,-10"/>
<text text-anchor="start" x="1226.67" y="-15.4" font-family="Times-12" font-size="14.00"> &#160;Providers</text>
<polygon fill="#fb8072" stroke="transparent" points="1299,-10 1299,-30 1319,-30 1319,-10 1299,-10"/>
<text text-anchor="start" x="1322.73" y="-15.4" font-family="Times-12" font-size="14.00"> &#160;Exports</text>
<g id="clust1" class="cluster">
<title>cluster_AppModule</title>
<polygon fill="none" stroke="black" stroke-dasharray="1,5" points="8,-70 8,-268 2274,-268 2274,-70 8,-70"/>
</g>
<g id="clust2" class="cluster">
<title>cluster_AppModule_declarations</title>
<polygon fill="none" stroke="black" points="168,-78 168,-130 2266,-130 2266,-78 168,-78"/>
</g>
<g id="clust15" class="cluster">
<title>cluster_AppModule_imports</title>
<polygon fill="none" stroke="black" points="16,-78 16,-130 160,-130 160,-78 16,-78"/>
</g>
<g id="clust17" class="cluster">
<title>cluster_AppModule_bootstrap</title>
<polygon fill="none" stroke="black" points="1107,-208 1107,-260 1231,-260 1231,-208 1107,-208"/>
</g>
<!-- AiModelDetailComponent -->
<g id="node1" class="node">
<title>AiModelDetailComponent</title>
<polygon fill="#ffffb3" stroke="black" points="2258.09,-122 2091.91,-122 2091.91,-86 2258.09,-86 2258.09,-122"/>
<text text-anchor="middle" x="2175" y="-99.8" font-family="Times,serif" font-size="14.00">AiModelDetailComponent</text>
</g>
<!-- AppModule -->
<g id="node13" class="node">
<title>AppModule</title>
<polygon fill="#8dd3c7" stroke="black" points="1210.66,-187 1207.66,-191 1186.66,-191 1183.66,-187 1127.34,-187 1127.34,-151 1210.66,-151 1210.66,-187"/>
<text text-anchor="middle" x="1169" y="-164.8" font-family="Times,serif" font-size="14.00">AppModule</text>
</g>
<!-- AiModelDetailComponent&#45;&gt;AppModule -->
<g id="edge1" class="edge">
<title>AiModelDetailComponent&#45;&gt;AppModule</title>
<path fill="none" stroke="black" d="M2175,-122.09C2175,-145.13 2175,-182 2175,-182 2175,-182 1220.95,-182 1220.95,-182"/>
<polygon fill="black" stroke="black" points="1220.95,-178.5 1210.95,-182 1220.95,-185.5 1220.95,-178.5"/>
</g>
<!-- AppComponent -->
<g id="node2" class="node">
<title>AppComponent</title>
<polygon fill="#ffffb3" stroke="black" points="2073.94,-122 1968.06,-122 1968.06,-86 2073.94,-86 2073.94,-122"/>
<text text-anchor="middle" x="2021" y="-99.8" font-family="Times,serif" font-size="14.00">AppComponent</text>
</g>
<!-- AppComponent&#45;&gt;AppModule -->
<g id="edge2" class="edge">
<title>AppComponent&#45;&gt;AppModule</title>
<path fill="none" stroke="black" d="M2021,-122.04C2021,-143.66 2021,-177 2021,-177 2021,-177 1220.67,-177 1220.67,-177"/>
<polygon fill="black" stroke="black" points="1220.67,-173.5 1210.67,-177 1220.67,-180.5 1220.67,-173.5"/>
</g>
<!-- ChatbotContainerComponent -->
<g id="node3" class="node">
<title>ChatbotContainerComponent</title>
<polygon fill="#ffffb3" stroke="black" points="1950.37,-122 1769.63,-122 1769.63,-86 1950.37,-86 1950.37,-122"/>
<text text-anchor="middle" x="1860" y="-99.8" font-family="Times,serif" font-size="14.00">ChatbotContainerComponent</text>
</g>
<!-- ChatbotContainerComponent&#45;&gt;AppModule -->
<g id="edge3" class="edge">
<title>ChatbotContainerComponent&#45;&gt;AppModule</title>
<path fill="none" stroke="black" d="M1860,-122.22C1860,-142.37 1860,-172 1860,-172 1860,-172 1220.67,-172 1220.67,-172"/>
<polygon fill="black" stroke="black" points="1220.67,-168.5 1210.67,-172 1220.67,-175.5 1220.67,-168.5"/>
</g>
<!-- ErrorMessageComponent -->
<g id="node4" class="node">
<title>ErrorMessageComponent</title>
<polygon fill="#ffffb3" stroke="black" points="1751.84,-122 1592.16,-122 1592.16,-86 1751.84,-86 1751.84,-122"/>
<text text-anchor="middle" x="1672" y="-99.8" font-family="Times,serif" font-size="14.00">ErrorMessageComponent</text>
</g>
<!-- ErrorMessageComponent&#45;&gt;AppModule -->
<g id="edge4" class="edge">
<title>ErrorMessageComponent&#45;&gt;AppModule</title>
<path fill="none" stroke="black" d="M1672,-122.22C1672,-140.83 1672,-167 1672,-167 1672,-167 1221.02,-167 1221.02,-167"/>
<polygon fill="black" stroke="black" points="1221.02,-163.5 1211.02,-167 1221.02,-170.5 1221.02,-163.5"/>
</g>
<!-- HomeComponent -->
<g id="node5" class="node">
<title>HomeComponent</title>
<polygon fill="#ffffb3" stroke="black" points="1573.55,-122 1458.45,-122 1458.45,-86 1573.55,-86 1573.55,-122"/>
<text text-anchor="middle" x="1516" y="-99.8" font-family="Times,serif" font-size="14.00">HomeComponent</text>
</g>
<!-- HomeComponent&#45;&gt;AppModule -->
<g id="edge5" class="edge">
<title>HomeComponent&#45;&gt;AppModule</title>
<path fill="none" stroke="black" d="M1516,-122.03C1516,-139.06 1516,-162 1516,-162 1516,-162 1220.86,-162 1220.86,-162"/>
<polygon fill="black" stroke="black" points="1220.86,-158.5 1210.86,-162 1220.86,-165.5 1220.86,-158.5"/>
</g>
<!-- LoadingMessageComponent -->
<g id="node6" class="node">
<title>LoadingMessageComponent</title>
<polygon fill="#ffffb3" stroke="black" points="1440.47,-122 1263.53,-122 1263.53,-86 1440.47,-86 1440.47,-122"/>
<text text-anchor="middle" x="1352" y="-99.8" font-family="Times,serif" font-size="14.00">LoadingMessageComponent</text>
</g>
<!-- LoadingMessageComponent&#45;&gt;AppModule -->
<g id="edge6" class="edge">
<title>LoadingMessageComponent&#45;&gt;AppModule</title>
<path fill="none" stroke="black" d="M1352,-122.24C1352,-137.57 1352,-157 1352,-157 1352,-157 1220.98,-157 1220.98,-157"/>
<polygon fill="black" stroke="black" points="1220.98,-153.5 1210.98,-157 1220.98,-160.5 1220.98,-153.5"/>
</g>
<!-- MessageBoxComponent -->
<g id="node7" class="node">
<title>MessageBoxComponent</title>
<polygon fill="#ffffb3" stroke="black" points="1245.65,-122 1092.35,-122 1092.35,-86 1245.65,-86 1245.65,-122"/>
<text text-anchor="middle" x="1169" y="-99.8" font-family="Times,serif" font-size="14.00">MessageBoxComponent</text>
</g>
<!-- MessageBoxComponent&#45;&gt;AppModule -->
<g id="edge7" class="edge">
<title>MessageBoxComponent&#45;&gt;AppModule</title>
<path fill="none" stroke="black" d="M1169,-122.11C1169,-122.11 1169,-140.99 1169,-140.99"/>
<polygon fill="black" stroke="black" points="1165.5,-140.99 1169,-150.99 1172.5,-140.99 1165.5,-140.99"/>
</g>
<!-- MessageListComponent -->
<g id="node8" class="node">
<title>MessageListComponent</title>
<polygon fill="#ffffb3" stroke="black" points="1074.09,-122 921.91,-122 921.91,-86 1074.09,-86 1074.09,-122"/>
<text text-anchor="middle" x="998" y="-99.8" font-family="Times,serif" font-size="14.00">MessageListComponent</text>
</g>
<!-- MessageListComponent&#45;&gt;AppModule -->
<g id="edge8" class="edge">
<title>MessageListComponent&#45;&gt;AppModule</title>
<path fill="none" stroke="black" d="M998,-122.24C998,-137.57 998,-157 998,-157 998,-157 1117.17,-157 1117.17,-157"/>
<polygon fill="black" stroke="black" points="1117.17,-160.5 1127.17,-157 1117.17,-153.5 1117.17,-160.5"/>
</g>
<!-- MessageSuggestionsComponent -->
<g id="node9" class="node">
<title>MessageSuggestionsComponent</title>
<polygon fill="#ffffb3" stroke="black" points="903.98,-122 706.02,-122 706.02,-86 903.98,-86 903.98,-122"/>
<text text-anchor="middle" x="805" y="-99.8" font-family="Times,serif" font-size="14.00">MessageSuggestionsComponent</text>
</g>
<!-- MessageSuggestionsComponent&#45;&gt;AppModule -->
<g id="edge9" class="edge">
<title>MessageSuggestionsComponent&#45;&gt;AppModule</title>
<path fill="none" stroke="black" d="M805,-122.03C805,-139.06 805,-162 805,-162 805,-162 1117.24,-162 1117.24,-162"/>
<polygon fill="black" stroke="black" points="1117.24,-165.5 1127.24,-162 1117.24,-158.5 1117.24,-165.5"/>
</g>
<!-- PictureGenContainerComponent -->
<g id="node10" class="node">
<title>PictureGenContainerComponent</title>
<polygon fill="#ffffb3" stroke="black" points="687.52,-122 488.48,-122 488.48,-86 687.52,-86 687.52,-122"/>
<text text-anchor="middle" x="588" y="-99.8" font-family="Times,serif" font-size="14.00">PictureGenContainerComponent</text>
</g>
<!-- PictureGenContainerComponent&#45;&gt;AppModule -->
<g id="edge10" class="edge">
<title>PictureGenContainerComponent&#45;&gt;AppModule</title>
<path fill="none" stroke="black" d="M588,-122.22C588,-140.83 588,-167 588,-167 588,-167 1117.22,-167 1117.22,-167"/>
<polygon fill="black" stroke="black" points="1117.22,-170.5 1127.22,-167 1117.22,-163.5 1117.22,-170.5"/>
</g>
<!-- SidenavComponent -->
<g id="node11" class="node">
<title>SidenavComponent</title>
<polygon fill="#ffffb3" stroke="black" points="470.44,-122 343.56,-122 343.56,-86 470.44,-86 470.44,-122"/>
<text text-anchor="middle" x="407" y="-99.8" font-family="Times,serif" font-size="14.00">SidenavComponent</text>
</g>
<!-- SidenavComponent&#45;&gt;AppModule -->
<g id="edge11" class="edge">
<title>SidenavComponent&#45;&gt;AppModule</title>
<path fill="none" stroke="black" d="M407,-122.22C407,-142.37 407,-172 407,-172 407,-172 1117.22,-172 1117.22,-172"/>
<polygon fill="black" stroke="black" points="1117.22,-175.5 1127.22,-172 1117.22,-168.5 1117.22,-175.5"/>
</g>
<!-- TitleTopBarComponent -->
<g id="node12" class="node">
<title>TitleTopBarComponent</title>
<polygon fill="#ffffb3" stroke="black" points="326.04,-122 175.96,-122 175.96,-86 326.04,-86 326.04,-122"/>
<text text-anchor="middle" x="251" y="-99.8" font-family="Times,serif" font-size="14.00">TitleTopBarComponent</text>
</g>
<!-- TitleTopBarComponent&#45;&gt;AppModule -->
<g id="edge12" class="edge">
<title>TitleTopBarComponent&#45;&gt;AppModule</title>
<path fill="none" stroke="black" d="M251,-122.04C251,-143.66 251,-177 251,-177 251,-177 1117.17,-177 1117.17,-177"/>
<polygon fill="black" stroke="black" points="1117.17,-180.5 1127.17,-177 1117.17,-173.5 1117.17,-180.5"/>
</g>
<!-- AppComponent  -->
<g id="node15" class="node">
<title>AppComponent </title>
<polygon fill="#80b1d3" stroke="black" points="1223.44,-252 1114.56,-252 1114.56,-216 1223.44,-216 1223.44,-252"/>
<text text-anchor="middle" x="1169" y="-229.8" font-family="Times,serif" font-size="14.00">AppComponent </text>
</g>
<!-- AppModule&#45;&gt;AppComponent  -->
<g id="edge14" class="edge">
<title>AppModule&#45;&gt;AppComponent </title>
<path fill="none" stroke="black" stroke-dasharray="1,5" d="M1169,-187.11C1169,-187.11 1169,-205.99 1169,-205.99"/>
<polygon fill="black" stroke="black" points="1165.5,-205.99 1169,-215.99 1172.5,-205.99 1165.5,-205.99"/>
</g>
<!-- AppRoutingModule -->
<g id="node14" class="node">
<title>AppRoutingModule</title>
<polygon fill="#8dd3c7" stroke="black" points="152.27,-122 149.27,-126 128.27,-126 125.27,-122 23.73,-122 23.73,-86 152.27,-86 152.27,-122"/>
<text text-anchor="middle" x="88" y="-99.8" font-family="Times,serif" font-size="14.00">AppRoutingModule</text>
</g>
<!-- AppRoutingModule&#45;&gt;AppModule -->
<g id="edge13" class="edge">
<title>AppRoutingModule&#45;&gt;AppModule</title>
<path fill="none" stroke="black" d="M88,-122.09C88,-145.13 88,-182 88,-182 88,-182 1117.29,-182 1117.29,-182"/>
<polygon fill="black" stroke="black" points="1117.29,-185.5 1127.29,-182 1117.29,-178.5 1117.29,-185.5"/>
</g>
</g>
</svg>
